<svg xmlns="http://www.w3.org/2000/svg" viewBox="0 0 512 512">
<defs></defs>
<rect width="512" height="512" fill="#1F5BD8"/>
<g class="art">
  <!-- Nube con granizo -->
  <g fill="#FFFFFF">
    <circle cx="214" cy="112" r="32"/><circle cx="260" cy="92" r="42"/><circle cx="304" cy="114" r="28"/>
    <rect x="182" y="108" width="150" height="38" rx="19"/>
    <circle cx="214" cy="186" r="17"/><circle cx="256" cy="206" r="17"/><circle cx="298" cy="186" r="17"/>
  </g>
  <!-- Domo -->
  <path d="M100 424 A156 156 0 0 1 412 424" fill="none" stroke="#FFFFFF" stroke-width="30" stroke-linecap="round"/>
  <!-- Auto de costado: carrocería, ventanas y ruedas recortadas con el color de fondo -->
  <g transform="translate(256 424)">
    <path d="M-70 -90 L-42 -134 Q-38 -140 -30 -140 L36 -140 Q44 -140 49 -134 L82 -90 Z" fill="#FFFFFF" stroke="#FFFFFF" stroke-width="12" stroke-linejoin="round"/>
    <rect x="-116" y="-96" width="232" height="64" rx="24" fill="#FFFFFF"/>
    <path d="M-50 -92 L-32 -124 L-4 -124 L-4 -92 Z" fill="#1F5BD8"/>
    <path d="M10 -92 L10 -124 L38 -124 L62 -92 Z" fill="#1F5BD8"/>
    <circle cx="-62" cy="-30" r="33" fill="#1F5BD8"/><circle cx="62" cy="-30" r="33" fill="#1F5BD8"/>
    <circle cx="-62" cy="-30" r="24" fill="#FFFFFF"/><circle cx="62" cy="-30" r="24" fill="#FFFFFF"/>
  </g>
</g>
</svg>
